<?xml version="1.0" encoding="utf-8" standalone="yes"?>
<!DOCTYPE svg PUBLIC "-//W3C//DTD SVG 1.1//EN" "http://www.w3.org/Graphics/SVG/1.1/DTD/svg11.dtd">
<svg width="24" height="24" viewBox="0 0 24 24" style="fill:none;stroke:none;fill-rule:evenodd;clip-rule:evenodd;stroke-linecap:round;stroke-linejoin:round;stroke-miterlimit:1.5;" version="1.1" xmlns="http://www.w3.org/2000/svg" xmlns:xlink="http://www.w3.org/1999/xlink"><g id="blend" style="mix-blend-mode:multiply"><g id="g-root-1_1q7lm05bexyit-fill" data-item-order="0" data-item-id="1_1q7lm05bexyit" data-item-class="Icon Stroke ColorFillGray ColorStrokeGray" data-item-index="none" data-renderer-id="0" transform="translate(-9, -9)"></g><g id="g-root-1_1q7lm05bexyit-stroke" data-item-order="0" data-item-id="1_1q7lm05bexyit" data-item-class="Icon Stroke ColorFillGray ColorStrokeGray" data-item-index="none" data-renderer-id="0" transform="translate(-9, -9)"><g id="1_1q7lm05bexyit-stroke" fill="none" stroke-linecap="round" stroke-linejoin="round" stroke-miterlimit="1.5" stroke="#bbbbbb" stroke-width="2"><g xmlns="http://www.w3.org/2000/svg"><path d="M 28.249 11.334C 28.165 11.201 28.018 11.119 27.86 11.119C 27.702 11.119 27.556 11.201 27.472 11.334L 25.57 14.376L 23.669 11.334C 23.585 11.201 23.439 11.119 23.281 11.119C 23.123 11.119 22.976 11.201 22.892 11.334L 20.991 14.376L 19.09 11.334C 19.006 11.201 18.859 11.119 18.701 11.119C 18.543 11.119 18.397 11.201 18.313 11.334L 16.411 14.376L 14.51 11.334C 14.426 11.201 14.28 11.119 14.122 11.119C 13.964 11.119 13.817 11.201 13.733 11.334L 11.832 14.376L 11.832 30.405C 11.832 30.658 12.037 30.863 12.29 30.863L 29.692 30.863C 29.945 30.863 30.15 30.658 30.15 30.405L 30.15 14.376ZM 10.916 18.04L 31.066 18.04M 10.916 27.199L 31.066 27.199M 16.411 14.376L 16.411 30.863M 20.991 14.376L 20.991 30.863M 25.57 14.376L 25.57 30.863"></path></g></g></g></g></svg>